<?xml version="1.0" encoding="UTF-8" standalone="no"?>
<!-- Created with Inkscape (http://www.inkscape.org/) -->

<svg
   xmlns:dc="http://purl.org/dc/elements/1.1/"
   xmlns:cc="http://creativecommons.org/ns#"
   xmlns:rdf="http://www.w3.org/1999/02/22-rdf-syntax-ns#"
   xmlns:svg="http://www.w3.org/2000/svg"
   xmlns="http://www.w3.org/2000/svg"
   xmlns:sodipodi="http://sodipodi.sourceforge.net/DTD/sodipodi-0.dtd"
   xmlns:inkscape="http://www.inkscape.org/namespaces/inkscape"
   id="svg2"
   version="1.1"
   inkscape:version="0.48.4 r9939"
   width="125"
   height="125"
   xml:space="preserve"
   sodipodi:docname="rat.pov"><metadata
     id="metadata8"><rdf:RDF><cc:Work
         rdf:about=""><dc:format>image/svg+xml</dc:format><dc:type
           rdf:resource="http://purl.org/dc/dcmitype/StillImage" /><dc:title></dc:title></cc:Work></rdf:RDF></metadata><defs
     id="defs6" /><sodipodi:namedview
     pagecolor="#ffffff"
     bordercolor="#666666"
     borderopacity="1"
     objecttolerance="10"
     gridtolerance="10"
     guidetolerance="10"
     inkscape:pageopacity="0"
     inkscape:pageshadow="2"
     inkscape:window-width="1680"
     inkscape:window-height="991"
     id="namedview4"
     showgrid="false"
     inkscape:zoom="3.3304348"
     inkscape:cx="16.683995"
     inkscape:cy="54"
     inkscape:window-x="0"
     inkscape:window-y="27"
     inkscape:window-maximized="1"
     inkscape:current-layer="g10" /><g
     id="g10"
     inkscape:groupmode="layer"
     inkscape:label="ink_ext_XXXXXX"
     transform="matrix(1.25,0,0,-1.25,0,125)"><path
       style="fill:#ff0000;fill-opacity:1;stroke:none"
       d="m 20.510156,44.76812 -0.0455,0.300037 0.0934,0.852796 -0.83715,0.208997 -0.5673,-0.415053 -0.26896,-0.771587 0.38725,-1.048863 -0.752823,-0.09051 -0.326078,0.937413 -0.154421,0.91938 0.822652,0.960083 -0.18909,0.545478 -1.172365,-1.153239 -0.120217,-1.013879 0.284237,-0.949434 0.432266,-0.856126 -0.223817,-0.79201 -0.48273,-0.622459 -0.550898,-1.196104 -0.43765,-1.172496 0.05903,-0.217529 0.360823,-1.389388 0.709977,-1.135963 1.785034,-0.299128 1.27286,0.26885 0.21812,-3.286478 0.44627,0.22348 0.37865,1.288867 0.0421,1.49027 1.22234,0.06068 0.15216,-1.856191 0.24342,-1.298244 0.45135,0.619769 -0.0204,1.06895 0.0202,2.185855 2.47864,0.221744 2.456,0.751854 2.62693,0.963561 2.71318,0.177506 0.19499,-1.373708 -0.10892,-1.593058 0.0617,-2.376556 -1.84677,-3.323544 -1.57545,-2.693519 -0.9399,-1.606912 -0.16354,-0.601578 -0.54299,-0.568481 -1.10759,0.249003 -0.49859,2.605068 -1.67006,2.033434 -2.14014,0.69519 -0.92421,-0.364494 0.0488,-0.924244 -1.36435,-0.394735 0.21303,-1.289277 -0.63885,-1.665521 0.96024,-0.703254 1.04453,-0.379213 1.79299,0.765063 0.75043,-0.503783 0.34042,-1.182075 0.776,-1.199278 0.16606,-1.415426 1.19692,-0.935878 2.23896,0.148198 0.54966,-2.299335 1.26205,-1.525254 1.09786,-0.828652 1.82565,-0.730262 1.03454,-0.527412 2.06907,-1.359098 3.00219,-1.318529 2.39364,-0.770831 2.63008,-0.707827 -1.12899,2.837757 -0.20285,2.839908 0.5477,2.697912 1.37938,1.298243 0.56798,0.304276 0.47987,0.531062 0.68358,0.624338 0.0124,1.332683 -0.0623,0.904349 -1.7869,-0.0546 -0.14922,-1.394545 -0.50441,-0.656197 -0.492,-0.06451 -0.37178,1.373906 -0.86195,-0.177088 0.12363,-1.041349 -0.29622,-1.233904 -0.87226,-0.0021 -0.90882,0.306767 -1.32919,1.435922 1.19317,0.328212 0.96188,-0.04057 0.15562,1.083587 -0.42598,0.353325 -0.7394,-0.386836 -0.0738,-0.830267 -0.98366,-0.485231 -0.20285,0.993969 0.25192,1.500772 1.45052,1.198641 1.72573,0.221634 0.78146,1.52288 1.85266,-0.134486 1.34175,-1.104403 1.32663,-0.477571 0.55988,-1.124948 0.19423,-2.126024 -0.33622,-2.336689 -0.0176,-2.687262 -0.95613,-1.958014 -0.66941,-2.616773 0,-0.791117 1.74452,0.162281 2.58253,0.476536 0.52225,-1.85592 0.24708,-2.268599 1.03636,-2.4865822 1.85259,-2.9797524 2.36155,-1.5350105 3.90471,-1.0411912 4.17872,0.344846 3.37364,1.6500713 1.62581,2.3269753 1.18169,2.9446597 0.31086,3.17186 -0.71624,2.169763 -0.82471,3.06787 -0.55434,2.187784 -0.40388,2.373351 0.80808,3.001011 0.90865,1.562602 1.35428,1.345325 1.24005,1.04068 1.97581,0.760203 0.93671,-0.214457 -0.9487,-1.663626 1.4504,0.452125 0.50581,1.681103 -1.29843,1.02614 -1.48414,0.05935 -2.60346,-0.934613 -1.58589,-1.617652 -1.76812,-1.885009 -0.49979,-2.865162 0.13283,-4.333029 0.74049,-4.372314 0.49079,-3.464476 -0.35553,-1.770126 -0.79161,-1.813768 -1.77478,-2.0457884 -2.47478,-1.7242293 -2.63705,-0.4868413 -2.35457,0.3145807 -1.7937,1.6602989 -1.18422,1.838057 -0.14232,2.0521174 -0.33304,2.370024 0.008,2.486583 0.20317,2.929527 0.16228,1.034537 1.39087,0.931611 1.09539,1.803545 1.05815,1.542836 0.95003,-0.872306 -0.0829,1.654096 0.20285,2.373351 0.0608,1.237388 -0.36513,2.271927 -0.69935,1.65457 1.10688,0.285817 -1.37058,2.31067 -2.04879,2.900762 -0.50713,1.014253 0.46656,0.223135 2.19742,-1.281638 -4.1245,4.588102 -2.37336,1.88651 -2.63705,2.00822 -3.303,2.222013 -0.32204,-0.568209 0.84732,-1.612698 0.0768,-3.506636 -0.50955,-2.655257 -0.41364,-1.481304 -0.9534,-1.399669 -0.57109,-1.628167 -1.47499,-1.468943 -0.65774,0.824174 -0.75331,0.374247 -0.60913,-0.45798 0.4237,-0.809102 1.01138,-0.771379 0.71239,0.871933 0.38033,-0.655488 0.23155,-0.872363 -0.54757,-0.708799 -0.47963,-0.330903 -0.83287,0.0424 -0.89651,0.696657 -1.01471,0.101632 -0.7379,-0.192481 -0.1467,-0.600673 0.0577,-1.469002 -0.51663,-0.569949 -0.54397,0.34362 -0.33885,0.952866 -0.0559,1.43333 -0.66168,0.115807 -0.42341,-2.589719 -0.34484,-0.202964 -0.58827,0.426099 0.038,2.522228 0.97626,1.331933 1.11196,1.498562 -0.28692,2.712249 -0.21192,1.47543 0.52285,1.068681 0.6694,0.567981 0.8952,0.455576 0.97228,-1.733706 0.16782,-0.367702 0.38509,-0.903553 0.86018,-0.900944 0.71649,0.487766 -0.18027,0.837172 -0.51456,0.732506 -0.74341,0.385968 -0.68346,-0.271112 -0.97519,1.73613 0.53264,0.26612 0.70195,-0.393217 1.06574,0.187077 0.87903,-0.219988 0.80917,-0.709388 0.73618,-0.436137 0.63787,-0.109421 0.64174,0.348309 0.22944,0.702241 -0.41713,0.81292 -0.81385,0.452494 -0.80569,0.103518 0.0146,3.344941 0.20285,2.839907 2.59648,0.08114 1.11568,-0.344846 4.84813,6.998344 8.37773,12.089892 3.59045,5.436394 1.27796,1.927079 0.58827,1.338814 1.2171,6.328937 -0.28399,2.880477 -0.83169,2.819623 -2.19079,3.874445 -3.30646,3.387604 -1.98793,1.419954 -2.3125,1.277958 -4.11787,1.501093 -3.83387,0.60855 -2.55592,0.0203 -4.03672,-0.18256 -2.49507,-0.56798 -4.50328,-1.805374 -2.29221,-1.379384 -2.45449,-1.987936 -3.02247,-3.691879 -1.82566,-4.280146 -0.50712,-3.935301 1.11567,-5.700099 0.52741,1.379384 1.13597,1.987935 2.39363,1.886509 3.20504,0.588267 3.04276,-0.912827 2.10965,-1.92708 0.87225,-1.277958 0.73027,1.460523 2.39363,2.637057 2.53563,0.912827 4.25986,-0.770832 1.86623,-1.460524 1.33881,-2.353065 0.36513,-1.277959 0.79112,0.933113 1.21711,1.095392 2.96161,1.135963 3.36732,-0.32456 2.94133,-2.251641 1.17654,-2.089361 0.32456,-1.034538 -1.54168,-2.353012 -2.7182,-3.265894 -9.95996,-12.739013 -2.79934,-3.793305 -0.50713,-0.689692 0.10143,0.689692 2.92105,16.106332 0.81416,3.817623 -0.18054,2.117702 -2.45928,-9.424354 -2.12993,-8.945709 -0.79111,-3.205038 -0.97369,2.718197 -5.31468,19.169375 -0.26371,0.385416 4.50329,-21.481871 -0.10143,-0.405701 -5.07126,6.349222 -11.60305,14.422672 12.92157,-18.641963 3.24561,-4.848128 -0.53102,-0.691258 -1.10235,0.635936 -1.81509,0.846439 -1.31103,0.08556 -1.0542,-0.09725 -1.35728,-2.034635 -1.16553,0.259283 0.89914,1.919315 -0.70358,2.608167 -2.0113,2.256927 -2.19607,0.148389 -2.27721,-1.453886 -0.046,-2.576202 0.65459,-2.00822 2.02078,-1.431626 -0.9329,-1.028119 -1.41244,1.120932 -1.62281,-0.263706 -1.60252,-0.770833 -0.62883,-0.831687 0.17606,-2.476682 -1.28703,1.59209 -0.0485,1.01707 -0.58161,0.53488 -0.0486,0.822921 1.34119,0.138677 2.4857,1.494943 0.39703,1.521379 0.0608,0.993967 -0.19335,1.342835 -0.87007,1.22673 -1.06712,0.439264 -1.02145,0.03144 -1.26597,-0.323412 -0.95652,-1.166078 -0.11306,-1.644697 0.60807,-0.972912 -0.0755,-1.073127 -1.62349,-0.831687 -2.59352,-1.701239 0.28239,-0.506416 1.46394,0.802521 1.28555,0.418817 1.85698,-0.187832 0.0478,-0.830058 -1.50535,0.06687 -1.64309,-0.567981 -0.82091,-0.638533 0.23265,-0.801706 0.60855,-0.567981 0.41117,-0.198753 0.70383,-0.06679 0.97232,-0.01026 0.71612,0.150665 0.60445,0.125127 0.34348,0.967852 1.28884,-1.597525 -1.55118,-0.486005 -1.6228,-0.243422 -1.08211,0.08007 -1.02692,0.07599 -0.30279,-0.950598 0.58885,-0.821935 1.15842,0.0314 1.12728,-0.215399 -0.95066,-1.374669 -1.2475,4.06e-4 -0.37788,-0.500632 -0.92459,-0.14419 -1.58244,1.336161 -1.39592,-0.526 -0.371699,-1.011972 0.118242,-1.107966 -1.131909,0.149416 -0.496278,1.406845 -0.02893,0.378868 1.034748,1.342115 0.810716,1.184522 0.46792,0.894591 0.60057,0.532881 2.13267,-0.977136 0.21745,0.574376 -1.17436,0.88087 -0.28819,0.493531 z"
       inkscape:connector-curvature="0"
       sodipodi:nodetypes="cccccccccccccccccccccccccccccccccccccccccccccccccccccccccccccccccccccccccccccccccccccccccccccccccccccccccccccccccccccccccccccccccccccccccccccccccccccccccccccccccccccccccccccccccccccccccccccccccccccccccccccccccccccccccccccccccccccccccccccccccccccccccccccccccccccccccccccccccccccccccccccccccccccccccccccccccccccccccccccccccccccccccccccccccccccccccccccccccccccccccccccccccccccccccccccccccccccccccccccccc"
       id="path7" /></g></svg>